/* XPM */
static char *_840ad788b974237abcd117aa752ce2c[] = {
/* columns rows colors chars-per-pixel */
"128 128 36 1 ",
"  c #020202",
". c #0B0B0B",
"X c #131313",
"o c #1C1C1C",
"O c #232323",
"+ c #2B2B2B",
"@ c #343434",
"# c #3B3B3B",
"$ c #434343",
"% c #4C4C4C",
"& c #545454",
"* c #5B5B5B",
"= c #636363",
"- c #6B6B6B",
"; c #737373",
": c #7C7C7C",
"> c #913333",
", c #9C3535",
"< c #A33636",
"1 c #838383",
"2 c #8B8B8B",
"3 c #949494",
"4 c #9C9C9C",
"5 c #A4A4A4",
"6 c #ACACAC",
"7 c #B4B4B4",
"8 c #BCBCBC",
"9 c #C3C3C3",
"0 c #CCCCCC",
"q c #D3D3D3",
"w c #DBDBDB",
"e c #E3E3E3",
"r c #ECECEC",
"t c #F4F4F4",
"y c #FEFEFE",
"u c None",
/* pixels */
"uuuuuuuuuuuuuuuuuuuuuuuuuuuuuuuuuuuuuuuuuuuuuuuuuuuuuuuuuuuuuuuuuuuuuuuuuuuuuuuuuuuuuuuuuuuuuuuuuuuuuuuuuuuuuuuuuuuuuuuuuuuuuuuu",
"uuuuuuuuuuuuuuuuuuuuuuuuuuuuuuuuuuuuuuuuuuuuuuuuuuuuuuuuuuuuuuuo@uuuuuuuuuuuuuuuuuuuuuuuuuuuuuuuuuuuuuuuuuuuuuuuuuuuuuuuuuuuuuuu",
"uuuuuuuuuuuuuuuuuuuuuuuuuuuuuuuuuuuuuuuuuuuuuuuuuuuuuuuuuuuuuu.28ouuuuuuuuuuuuuuuuuuuuuuuuuuuuuuuuuuuuuuuuuuuuuuuuuuuuuuuuuuuuuu",
"uuuuuuuuuuuuuuuuuuuuuuuuuuuuuuuuuuuuuuuuuuuuuuuuuuuuuuuuuuuuu *ty1.uuuuuuuuuuuuuuuuuuuuuuuuuuuuuuuuuuuuuuuuuuuuuuuuuuuuuuuuuuuuu",
"uuuuuuuuuuuuuuuuuuuuuuuuuuuuuuuuuuuuuuuuuuuuuuuuuuuuuuuuuuuuu@qyye%uuuuuuuuuuuuuuuuuuuuuuuuuuuuuuuuuuuuuuuuuuuuuuuuuuuuuuuuuuuuu",
"uuuuuuuuuuuuuuuuuuuuuuuuuuuuuuuuuuuuuuuuuuuuuuuuuuuuuuuuuuuuX7ytty9ouuuuuuuuuuuuuuuuuuuuuuuuuuuuuuuuuuuuuuuuuuuuuuuuuuuuuuuuuuuu",
"uuuuuuuuuuuuuuuuuuuuuuuuuuuuuuuuuuuuuuuuuuuuuuuuuuuuuuuuuuu.1yy1;yy2.uuuuuuuuuuuuuuuuuuuuuuuuuuuuuuuuuuuuuuuuuuuuuuuuuuuuuuuuuuu",
"uuuuuuuuuuuuuuuuuuuuuuuuuuuuuuuuuuuuuuuuuuuuuuuuuuuuuuuuuuo1ty8oX6yr1Xuuuuuuuuuuuuuuuuuuuuuuuuuuuuuuuuuuuuuuuuuuuuuuuuuuuuuuuuuu",
"uuuuuuuuuuuuuuuuuuuuuuuuuuuuuuuuuuuuuuuuuuuuuuuuuuuuuuuu.%7yyq#uu#qyy7$.uuuuuuuuuuuuuuuuuuuuuuuuuuuuuuuuuuuuuuuuuuuuuuuuuuuuuuuu",
"uuuuuuuuuuuuuuuuuuuuuuuuuuuuuuuuuuuuuuuuuuuuuuuuuuuuuu.#3ryy9$ uu $9yyr4#.uuuuuuuuuuuuuuuuuuuuuuuuuuuuuuuuuuuuuuuuuuuuuuuuuuuuuu",
"uuuuuuuuuuuuuuuuuuuuuuuuuuuuuuuuuuuuuuuuuuuuuuuuuuuuo%4eyyr2OuuuuuuO2ryye5%Xuuuuuuuuuuuuuuuuuuuuuuuuuuuuuuuuuuuuuuuuuuuuuuuuuuuu",
"uuuuuuuuuuuuuuuuuuuuuuuuuuuuuuuuuuuuuuuuuuuuuuuuuX@:8ryyt6%.uuuuuuuu.%6ryyt8:#Xuuuuuuuuuuuuuuuuuuuuuuuuuuuuuuuuuuuuuuuuuuuuuuuuu",
"uuuuuuuuuuuuuuuuuuuuuuuuuuuuuuuuuuuuuuuuuuuuu.o$:7eyyyr6&XuuuuuuuuuuuuX&6eyyye7:$o.uuuuuuuuuuuuuuuuuuuuuuuuuuuuuuuuuuuuuuuuuuuuu",
"uuuuuuuuuuuuuuuuuuuuuuuuuuuuuuuuuuuuuuuu XO%;40ryyytq2$.uuuuuuuuuuuuuuuu.$20tyyyr05;%OX uuuuuuuuuuuuuuuuuuuuuuuuuuuuuuuuuuuuuuuu",
"uuuuuuuuuuuuuuuuuuuuuuuuuuuuuuuuu .Xo#&;37wryyyyt04*O uuuuuuuuu,<uuuuuuuuu O&3qryyyyrw83;&#oX. uuuuuuuuuuuuuuuuuuuuuuuuuuuuuuuuu",
"uuuuuuuuuuuuuuuuuuuu.XXooOO+$%*-:368wetyyyyytw71%O.uuuuuuuuuuu>,<<<uuuuuuuuuu.O%17wtyyyyytrw963:-*%$@OooooX.uuuuuuuuuuuuuuuuuuuu",
"uuuuuuuuuuuuuuuuuuu -8900weerrtyyyyyyyyrw94:&+X uuuuuuuuuuuu>>><<<<<uuuuuuuuuuuuuX+&;49eryyyyyyyytrreewq098- uuuuuuuuuuuuuuuuuuu",
"uuuuuuuuuuuuuuuuuuu@wyyyyyyyyytrre0741-%+o.uuuuuuuuuuuuuuu>>>>,<<<<<<<uuuuuuuuuuuuuuu.X+%-1470wrrtyyyyyyyyyw@uuuuuuuuuuuuuuuuuuu",
"uuuuuuuuuuuuuuuuuu 2yt865321:-*%#OoX. uuuuuuuuuuuuuuuuuu>>>>>><<<<<<<<<<uuuuuuuuuuuuuuuuuu .XoO#%*-:123567ty2 uuuuuuuuuuuuuuuuuu",
"uuuuuuuuuuuuuuuuuu@wy5X..   uuuuuuuuuuuuuuuuuuuuuuuuu>>>>>>>>,<<<<<<<<<<<<<uuuuuuuuuuuuuuuuuuuuuuuuu   ..X5yw@uuuuuuuuuuuuuuuuuu",
"uuuuuuuuuuuuuuuuu 1yr%uuuuuuuuuuuuuuuuuuuuuuuuuuuu>>>>>>>>>>>,<<<<<<<<<<<<<<<<uuuuuuuuuuuuuuuuuuuuuuuuuuuu%ry1 uuuuuuuuuuuuuuuuu",
"uuuuuuuuuuuuuuuuuO0y6.uuuuuuuuuuuuuuuuuuuuuuuu>>>>>>>>>>>>>>><<<<<<<<<<<<<<<<<<<<<uuuuuuuuuuuuuuuuuuuuuuuu.5yqOuuuuuuuuuuuuuuuuu",
"uuuuuuuuuuuuuuuuu=yt&uuuuuuuuuuuuuuuuuuuu>>>>>>>>>>>>>>>>>>>,<<<<<<<<<<<<<<<<<<<<<<<<<<uuuuuuuuuuuuuuuuuuuu&tt-uuuuuuuuuuuuuuuuu",
"uuuuuuuuuuuuuuuu.6y9ouuuuuuuuuuuu>>>>>>>>>>>>>>>>>>>>>>>>>>>,<<<<<<<<<<<<<<<<<<<<<<<<<<<<<<<<<<uuuuuuuuuuuuo9y6.uuuuuuuuuuuuuuuu",
"uuuuuuuuuuuuuuuu#ey: uuuu>>>>>>>>>>>>>>>>>>>>>>>>>>>>>>>>>>><<<<<<<<<<<<<<<<<<<<<<<<<<<<<<<<<<<<<<<<<<<uuuu :ye#uuuuuuuuuuuuuuuu",
"uuuuuuuuuuuuuuuu:ye@uuuuu>>>>>>>>>>>>>>>>>>>>>>>>>>>>>>>>>>,<<<<<<<<<<<<<<<<<<<<<<<<<<<<<<<<<<<<<<<<<<<uuuuu#ey:uuuuuuuuuuuuuuuu",
"uuuuuuuuuuuuuuuX8y6Xuuuuu>>>>>>>>>>>>>>>>>>>>>>>>>>>>>>>>>><<<<<<<<<<<<<<<<<<<<<<<<<<<<<<<<<<<<<<<<<<<<<uuuu.6y8Xuuuuuuuuuuuuuuu",
"uuuuuuuuuuuuuuu#ey;uuuuu>>>>>>>>>>>>>>>>>>>>>>>>>>>>>>>>>>,<<<<<<<<<<<<<<<<<<<<<<<<<<<<<<<<<<<<<<<<<<<<<uuuuu;ye#uuuuuuuuuuuuuuu",
"uuuuuuuuuuuuuuu;ye@uuuuu>>>>>>>>>>>>>>>>>>>>>>>>>>>>>>>>>>,<<<<<<<<<<<<<<<<<<<<<<<<<<<<<<<<<<<<<<<<<<<<<<uuuu@ey;uuuuuuuuuuuuuuu",
"uuuuuuuuuuuuuu.6y8Xuuuu>>>>>>>>>>>>>>>>>>>>>>>>>>>>>>>>>>><<<<<<<<<<<<<<<<<<<<<<<<<<<<<<<<<<<<<<<<<<<<<<<uuuuX7y5.uuuuuuuuuuuuuu",
"uuuuuuuuuuuuuuOqy1 uuuu>>>>>>>>>>>>>>>>>>>>>>>>>>>>>>>>>>,<<<<<<<<<<<<<<<<<<<<<<<<<<<<<<<<<<<<<<<<<<<<<<<uuuu 1ywOuuuuuuuuuuuuuu",
"uuuuuuuuuuuuuu%tt&uuuuu>>>>>>>>>>>>>>>>>>>>>>>>>>>>>>>>>><<<<<<<<<<<<<<<<<<<<<<<<<<<<<<<<<<<<<<<<<<<<<<<<<uuuu&tt%uuuuuuuuuuuuuu",
"uuuuuuuuuuuuuu:ywOuuuuu>>>>>>>>>>>>>>>>>>>>>>>>>>>>>>>>>><<<<<<<<<<<<<<<<<<<<<<<<<<<<<<<<<<<<<<<<<<<<<<<<<uuuuOwy:uuuuuuuuuuuuuu",
"uuuuuuuuuuuuu.5y7.uuuu>>>>>>>>>>>>>>>>>>>>>>>>>>>>>>>>>>,<<<<<<<<<<<<<<<<<<<<<<<<<<<<<<<<<<<<<<<<<<<<<<<<<uuuuX7y5.uuuuuuuuuuuuu",
"uuuuuuuuuuuuuo0y2 uuuu>>>>>>>>>>>>>>>>>>>>>>>>>>>>>>>>>><<<<<<<<<<<<<<<<<<<<<<<<<<<<<<<<<<<<<<<<<<<<<<<<<<uuuu 1y0ouuuuuuuuuuuuu",
"uuuuuuuuuuuuu#ey=uuuuu>>>>>>>>>>>>>>>>>>>>>>>>>>>>>>>>>,<<<<<<<<<<<<<<<<<<<<<<<<<<<<<<<<<<<<<<<<<<<<<<<<<<<uuuu=yr#uuuuuuuuuuuuu",
"uuuuuuuuuuuuu*tr#uuuuu>>>>>>>>>>>>>>>>>>>>>>>>>>>>>>>>>,<<<<<<<<<<<<<<<<<<<<<<<<<<<<<<<<<<<<<<<<<<<<<<<<<<<uuuu#et*uuuuuuuuuuuuu",
"uuuuuuuuuuuuu:yqOuuuu>>>>>>>>>>>>>>>>>>>>>>>>>>>>>>>>>><<<<<<<<<<<<<<<<<<<<<<<<<<<<<<<<<<<<<<<<<<<<<<<<<<<<uuuuoqy:uuuuuuuuuuuuu",
"uuuuuuuuuuuu 4y8Xuuuu>>>>>>>>>>>>>>>>>>>>>>>>>>>>>>>>>,<<<<<<<<<<<<<<<<<<<<<<<<<<<<<<<<<<<<<<<<<<<<<<<<<<<<uuuuX8y4.uuuuuuuuuuuu",
"uuuuuuuuuuuuX7y4.uuuu>>>>>>>>>>>>>>>>>>>>>>>>>>>>>>>>><<<<<<<<<<<<<<<<<<<<<<<<<<<<<<<<<<<<<<<<<<<<<<<<<<<<<uuuu.4y7.uuuuuuuuuuuu",
"uuuuuuuuuuuuo0y1uuuuu>>>>>>>>>>>>>>>>>>>>>>>>>>>>>>>>,<<<<<<<<<<<<<<<<<<<<<<<<<<<<<<<<<<<<<<<<<<<<<<<<<<<<<<uuuu:yqouuuuuuuuuuuu",
"uuuuuuuuuuuuOey-uuuuu>>>>>>>>>>>>>>>>>>>>>>>>>>>>>>>>,<<<<<<<<<<<<<<<<<<<<<<<<<<<<<<<<<<<<<<<<<<<<<<<<<<<<<<uuuu-yeOuuuuuuuuuuuu",
"uuuuuuuuuuuu#rt&uuuuu>>>>>>>>>>>>>>>>>>>>>>>>>>>>>>>><<<<<<<<<<<<<<<<<<<<<<<<<<<<<<<<<<<<<<<<<<<<<<<<<<<<<<<uuuu&tr#uuuuuuuuuuuu",
"uuuuuuuuuuuu%tr$uuuu>>>>>>>>>>>>>>>>>>>>>>>>>>>>>>>>,<<<<<<<<<<<<<<<<<<<<<<<<<<<<<<<<<<<<<<<<<<<<<<<<<<<<<<<uuuu$rt&uuuuuuuuuuuu",
"uuuuuuuuuuuu*tr@uuuu>>>>>>>>>>>>>>>>>>>>>>>>>>>>>>>><<<<<<<<<<<<<<<<<<<<<<<<<<<<<<<<<<<<<<<<<<<<<<<<<<<<<<<<uuuu@rt=uuuuuuuuuuuu",
"uuuuuuuuuuuu-yeOuuuu>>>>>>>>>>>>>>>>>>>>>>>>>>>>>>>><<<<<<<<<<<<<<<<<<<<<<<<<<<<<<<<<<<<<<<<<<<<<<<<<<<<<<<<uuuuOey-uuuuuuuuuuuu",
"uuuuuuuuuuuu;ywouuuu>>>>>>>>>>>>>>>>>>>>>>>>>>>>>>>,<<<<<<<<<<<<<<<<<<<<<<<<<<<<<<<<<<<<<<<<<<<<<<<<<<<<<<<<uuuuowy;uuuuuuuuuuuu",
"uuuuuuuuuuuu:yqouuuu>>>>>>>>>>>>>>>>>>>>>>>>>>>>>>>,<<<<<<<<<<<<<<<<<<<<<<<<<<<<<<<<<<<<<<<<<<<<<<<<<<<<<<<<uuuuo0y:uuuuuuuuuuuu",
"uuuuuuuuuuuu:y0ouuuu>>>>>>>>>>>>>>>>>>>>>>>>>>>>>>,<<<<<<<<<<<<<<<<<<<<<<<<<<<<<<<<<<<<<<<<<<<<<<<<<<<<<<<<<uuuuo0y1uuuuuuuuuuuu",
"uuuuuuuuuuuu1y0ouuuu>>>>>>>>>>>>>>>>>>>>>>>>>>>>>><<<<<<<<<<<<<<<<<<<<<<<<<<<<<<<<<<<<<<<<<<<<<<<<<<<<<<<<<<uuuuo0y1uuuuuuuuuuuu",
"uuuuuuuuuuuu1y0ouuuu>>>>>>>>>>>>>>>>>>>>>>>>>>>>>><<<<<<<<<<<<<<<<<<<<<<<<<<<<<<<<<<<<<<<<<<<<<<<<<<<<<<<<<<uuuuo0y1uuuuuuuuuuuu",
"uuuuuuuuuuuu:y0ouuuu>>>>>>>>>>>>>>>>>>>>>>>>>>>>>><<<<<<<<<<<<<<<<<<<<<<<<<<<<<<<<<<<<<<<<<<<<<<<<<<<<<<<<<<uuuuo0y:uuuuuuuuuuuu",
"uuuuuuuuuuuu:yqouuuu>>>>>>>>>>>>>>>>>>>>>>>>>>>>>,<<<<<<<<<<<<<<<<<<<<<<<<<<<<<<<<<<<<<<<<<<<<<<<<<<<<<<<<<<uuuuoqy:uuuuuuuuuuuu",
"uuuuuuuuuuuu;ywOuuuu>>>>>>>>>>>>>>>>>>>>>>>>>>>>><<<<<<<<<<<<<<<<<<<<<<<<<<<<<<<<<<<<<<<<<<<<<<<<<<<<<<<<<<<uuuuowy-uuuuuuuuuuuu",
"uuuuuuuuuuuu-yeOuuuu>>>>>>>>>>>>>>>>>>>>>>>>>>>><<<<<<<<<<<<<<<<<<<<<<<<<<<<<<<<<<<<<<<<<<<<<<<<<<<<<<<<<<<<uuuuOey-uuuuuuuuuuuu",
"uuuuuuuuuuuu*tr@uuuu>>>>>>>>>>>>>>>>>>>>>>>>>>>><<<<<<<<<<<<<<<<<<<<<<<<<<<<<<<<<<<<<<<<<<<<<<<<<<<<<<<<<<<<uuuu#rt*uuuuuuuuuuuu",
"uuuuuuuuuuuu%rt%uuuu>>>>>>>>>>>>>>>>>>>>>>>>>>>,<<<<<<<<<<<<uuuuuuu<<<<<<<<<<<<<<<<<<<<<<<<<<<<<<<<<<<<<<<<<uuuu$tr%uuuuuuuuuuuu",
"uuuuuuuuuuuu#rt*uuuu>>>>>>>>>>>>>>>>>>>>>>>>>>>,<<<<<<<uuuuuuuuuuuuuuuuu<<<<<<<<<<<<<<<<<<<<<<<<<<<<<<<<<<<<uuuu*tr#uuuuuuuuuuuu",
"uuuuuuuuuuuuOwy-uuuu>>>>>>>>>>>>>>>>>>>>>>>>>>><<<<<uuuuuuuuuuuuuuuuuuuuuuu<<<<<<<<<<<<<<<<<<<<<<<<<<<<<<<<<uuuu;ywOuuuuuuuuuuuu",
"uuuuuuuuuuuuo0y2 uuu>>>>>>>>>>>>>>>>>>>>>>>>>>,<<<uuuuuuuuu.XooOOOX. uuuuuuuu<<<<<<<<<<<<<<<<<<<<<<<<<<<<<<<uuu 1y0ouuuuuuuuuuuu",
"uuuuuuuuuuuuX6y5.uuuu>>>>>>>>>>>>>>>>>>>>>>>>><<uuuuuuu.O%:370qewq952=@Xuuuuuu<<<<<<<<<<<<<<<<<<<<<<<<<<<<<<uuu.5y7.uuuuuuuuuuuu",
"uuuuuuuuuuuu 3y9Xuuuu>>>>>>>>>>>>>>>>>>>>>>>>>uuuuuuuX%3qryyyyyyyyyyyte7;+ uuuuu<<<<<<<<<<<<<<<<<<<<<<<<<<<<uuuo9y3 uuuuuuuuuuuu",
"uuuuuuuuuuuuu;yw+uuuu>>>>>>>>>>>>>>>>>>>>>>>>uuuuuuX*7tyyyyyyyyyyyyyyyyyyw2@ uuuu<<<<<<<<<<<<<<<<<<<<<<<<<<uuuuOwy;uuuuuuuuuuuuu",
"uuuuuuuuuuuuu&tr%uuuu>>>>>>>>>>>>>>>>>>>>>>>uuuuu.$7tyyyytw73:---;250ryyyyyw:Ouuuu<<<<<<<<<<<<<<<<<<<<<<<<<uuuu%tt&uuuuuuuuuuuuu",
"uuuuuuuuuuuuu+wy;uuuu>>>>>>>>>>>>>>>>>>>>>>uuuuuo1eyyyyw4*+X uuuuu .o#:8tyyyy8$ uuu<<<<<<<<<<<<<<<<<<<<<<<<uuuu-ye+uuuuuuuuuuuuu",
"uuuuuuuuuuuuuX9y3.uuuu>>>>>>>>>>>>>>>>>>>>uuuuu@6yyyyq:+.uuuuuuuuuuuuuuX&5tyyye-.uuu<<<<<<<<<<<<<<<<<<<<<<<uuu.4y9Xuuuuuuuuuuuuu",
"uuuuuuuuuuuuu.3y9ouuuu>>>>>>>>>>>>>>>>>>>uuuu $9yyyr2+ uuuuuuuuuuuuuuuuuu.&8yyyt1Xuuu<<<<<<<<<<<<<<<<<<<<<<uuuo9y3.uuuuuuuuuuuuu",
"uuuuuuuuuuuuuu-ye#uuuu>>>>>>>>>>>>>>>>>>uuuuu#0yyy9%.uuuuuuuuuuuuuuuuuuuuuuO2tyyt2.uuu<<<<<<<<<<<<<<<<<<<<uuuu#ey-uuuuuuuuuuuuuu",
"uuuuuuuuuuuuuu#ry-uuuu>>>>>>>>>>>>>>>>>>uuuu@9yyy7+uuuuuuuuuuuuuuuuuuuuuuuuu.-eyyt:.uuu<<<<<<<<<<<<<<<<<<<uuuu-yr#uuuuuuuuuuuuuu",
"uuuuuuuuuuuuuuo9y4.uuuu>>>>>>>>>>>>>>>>uuuuO7yyy5ouuuuuuuuuuuuuuuuuuuuuuuuuuu &eyyr= uuu<<<<<<<<<<<<<<<<<<uuu.4y9Xuuuuuuuuuuuuuu",
"uuuuuuuuuuuuuu 2yqOuuuu>>>>>>>>>>>>>>>>uuu.1yyy6ouuuuuuuuuuuuuuuuuuuuuuuuuuuuu *ryyq@uuuu<<<<<<<<<<<<<<<<<uuuOqy2 uuuuuuuuuuuuuu",
"uuuuuuuuuuuuuuu&tt&uuuu>>>>>>>>>>>>>>>uuuu&ryy0+uuuuuuuuuuuuuuuuuuuuuuuuuuuuuuu :tyy6Xuuuu<<<<<<<<<<<<<<<uuuu&tt&uuuuuuuuuuuuuuu",
"uuuuuuuuuuuuuuuOqy3 uuuu>>>>>>>>>>>>>>uuuo8yye%uuuuuuuuuuuuuuuuuuuuuuuuuuuuuuuuuX5yyt=uuuu<<<<<<<<<<<<<<<uuu 3yqOuuuuuuuuuuuuuuu",
"uuuuuuuuuuuuuuu.4yqOuuuu>>>>>>>>>>>>>uuuu-tyy1 uuuuuuuuuuuuuuuuuuuuuuuuuuuuuuuX.u@qyy9ouuuu<<<<<<<<<<<<<uuuuO0y4.uuuuuuuuuuuuuuu",
"uuuuuuuuuuuuuuuu&tt*uuuu>>>>>>>>>>>>>uuuo8yy0+uuuuuuuuuuuuuuuuuuuuuuuuuuuuu O;5#u ;yyt-uuuuu<<<<<<<<<<<<uuuu*yt&uuuuuuuuuuuuuuuu",
"uuuuuuuuuuuuuuuuo0y5.uuuu>>>>>>>>>>>uuuu&tyy; uuuuuuuuuuuuuuuuuuuuuuuuuuuuO;99-XuuO0yy6Xuuuu<<<<<<<<<<<<uuu.5y0ouuuuuuuuuuuuuuuu",
"uuuuuuuuuuuuuuuu 2ye@uuuu>>>>>>>>>>>uuu.4yyq+uuuuuuuuuuuuuuuuuuuuuuuuuuuX*9w:Ouuuu :yyr$uuuuu<<<<<<<<<<uuuu@ey2 uuuuuuuuuuuuuuuu",
"uuuuuuuuuuuuuuuuu#ey1 uuuu>>>>>>>>>uuuuOqyy3.uuuuuuuuuuuuuuuuuuuuuuuuuu+4r7# uuuuuu#eyy:uuuuuu<<<<<<<<<uuu :yr#uuuuuuuuuuuuuuuuu",
"uuuuuuuuuuuuuuuuu.6y0Ouuuu>>>>>>>>,uuuu&tyt*uuuuuuuuuuuuuuuuuuuuuuuuu.&0t2ouuuuuuuu.7yy6Xuuuuuu<<<<<<<uuuuO0y6.uuuuuuuuuuuuuuuuu",
"uuuuuuuuuuuuuuuuuu&ty-uuuu>>>>>>>>uuuuu:yywOuuuuuuuuuuuuuuuuuuuuuuuuX:rr-.uuuuuuuuu 1yywOuuuuuu<<<<<<<uuuu-yt*uuuuuuuuuuuuuuuuuu",
"uuuuuuuuuuuuuuuuuuo8y8ouuuu>>>>>>uuuuu.5yy7Xuuuuuuuuuuuuuuuuuuuuuuuo4ye* uuuuuuuuuuu*tyr$uuuuuuu<<<<<uuuuo8y9ouuuuuuuuuuuuuuuuuu",
"uuuuuuuuuuuuuuuuuuu-ty=uuuu>>>>>>uuuuuX8yy3.uuuuuuuuuuuuuuuuuuuuuuO6ye& uuuuuuuuuuuu@ryt=uuuuuuuu<<<<uuuu=ty-uuuuuuuuuuuuuuuuuuu",
"uuuuuuuuuuuuuuuuuuuO0y8Xuuuu>>>>uuuuuuoqyy:uuuuuuuuuuuuuuuuuuuuuu+7ye* uuuuuuuuuuuuuOwyy;uuuuuuuuu<<uuuuo8y9ouuuuuuuuuuuuuuuuuuu",
"uuuuuuuuuuuuuuuuuuuu-yt-uuuuu>>uuuuuuuOwyy;uuuuuuuuuuuuuuuuuuuuu+7yt- uuuuuuuuuuuuuuoqyy:uuuuuuuuuu<uuuu-ty-uuuuuuuuuuuuuuuuuuuu",
"uuuuuuuuuuuuuuuuuuuuo9y9Ouuuu>uuuuuuuuOwyy;uuuuuuuuuuuuuuuuuuuuo7yy1.uuuuuuuuuuuuuuuo0yy1uuuuuuuuuuuuuuO9y9ouuuuuuuuuuuuuuuuuuuu",
"uuuuuuuuuuuuuuuuuuuuu-ty: uuuuuuuuuuuuOwyy;uuuuuuuu O.uuuuuuuuX4yy5Xuuuuuuuuuuuuuuuuo0yy:uuuuuuuuuuuuu :yt-uuuuuuuuuuuuuuuuuuuuu",
"uuuuuuuuuuuuuuuuuuuuuX7yw@uuuuuuuuuuuuOqyy:uuuuuuu.=9- uuuuuu.:yy0+uuuuuuuuuuuuuuuuuOwyy;uuuuuuuuuuuuu@wy7Xuuuuuuuuuuuuuuuuuuuuu",
"uuuuuuuuuuuuuuuuuuuuuu%ry4.uuuuuuuuuuuX8yy3 uuuuuO2tye& uuuu -ryr&uuuuuuuuuuuuuuuuuu@ryt=uuuuuuuuuuuu.4yr%uuuuuuuuuuuuuuuuuuuuuu",
"uuuuuuuuuuuuuuuuuuuuuu.3yt*uuuuuuuuuuu.5yy7Xuuuu.1yyyyq$uuuu$wyy1.uuuuuuuuuuuuuuuuuu*tyr$uuuuuuuuuuuu*ry3.uuuuuuuuuuuuuuuuuuuuuu",
"uuuuuuuuuuuuuuuuuuuuuuu+qy9Ouuuuuuuuuuu:yyw+uuuuu#qyyyy0@uuo8yy9Ouuuuuuuuuuuuuuuuuu 1yywOuuuuuuuuuuuO0yq+uuuuuuuuuuuuuuuuuuuuuuu",
"uuuuuuuuuuuuuuuuuuuuuuu -ty3.uuuuuuuuuu&tyt&uuuuuu%wyyyy8O 1yyr&uuuuuuuuuuuuuuuuuuuX7yy7Xuuuuuuuuuu.3yt- uuuuuuuuuuuuuuuuuuuuuuu",
"uuuuuuuuuuuuuuuuuuuuuuuuX5yr*uuuuuuuuuuOqyy3 uuuuu *ryyyy4*eyy4.uuuuuuuuuuuuuuuuuuu@eyy:uuuuuuuuuuu*ry5Xuuuuuuuuuuuuuuuuuuuuuuuu",
"uuuuuuuuuuuuuuuuuuuuuuuuu@qy0@uuuuuuuuu.4yyq+uuuuuu.;tyyyyryyw#uuuuuuuuuuuuuuuuuuu :yyr#uuuuuuuuuu+0yq@uuuuuuuuuuuuuuuuuuuuuuuuu",
"uuuuuuuuuuuuuuuuuuuuuuuuu =ty5Xuuuuuuuuu*tyy; uuuuuu.1yyyyyyy1 uuuuuuuuuuuuuuuuuuuO0yy7XuuuuuuuuuX6yt= uuuuuuuuuuuuuuuuuuuuuuuuu",
"uuuuuuuuuuuuuuuuuuuuuuuuuu.3yy:.uuuuuuuuo8yyqOuuuuuuuX4yyyyyq+uuuuuuuuuuuuuuuuuuu ;yyt-uuuuuuuuu.:yy3.uuuuuuuuuuuuuuuuuuuuuuuuuu",
"uuuuuuuuuuuuuuuuuuuuuuuuuuuO8ye& uuuuuuuu-tyy1 uuuuuuuO6yyyy: uuuuuuuuuuuuuuuuuuu@qyy9ouuuuuuuu &ey9Ouuuuuuuuuuuuuuuuuuuuuuuuuuu",
"uuuuuuuuuuuuuuuuuuuuuuuuuuuu#wyq#uuuuuuuuo8yye%uuuuuuuu+8yyqOuuuuuuuuuuuuuuuuuuu.4yyt*uuuuuuuuu#qyw$uuuuuuuuuuuuuuuuuuuuuuuuuuuu",
"uuuuuuuuuuuuuuuuuuuuuuuuuuuu *ry9Ouuuuuuuu%ryy0+uuuuuuuu#qy1 uuuuuuuuuuuuuuuuuu :yyy6XuuuuuuuuO8yt= uuuuuuuuuuuuuuuuuuuuuuuuuuuu",
"uuuuuuuuuuuuuuuuuuuuuuuuuuuuu.1yy5ouuuuuuu.2yyy6ouuuuuuuu%8@uuuuuuuuuuuuuuuuuu *ryyq#uuuuuuuuo5yy1.uuuuuuuuuuuuuuuuuuuuuuuuuuuuu",
"uuuuuuuuuuuuuuuuuuuuuuuuuuuuuuX4yy3.uuuuuuuo7yyy5ouuuuuuu +.uuuuuuuuuuuuuuuuu *wyyr= uuuuuuu.3yy4Xuuuuuuuuuuuuuuuuuuuuuuuuuuuuuu",
"uuuuuuuuuuuuuuuuuuuuuuuuuuuuuuuO7yt1.uuuuuuu@0yyy6+uuuuuuuuuuuuuuuuuuuuuuuuu.-eyyt1.uuuuuuu.1ty7Ouuuuuuuuuuuuuuuuuuuuuuuuuuuuuuu",
"uuuuuuuuuuuuuuuuuuuuuuuuuuuuuuuu@9yt;.uuuuuuu#qyyy0%.uuuuuuuuuuuuuuuuuuuuuuo2ryyt2.uuuuuuu.;ty9@uuuuuuuuuuuuuuuuuuuuuuuuuuuuuuuu",
"uuuuuuuuuuuuuuuuuuuuuuuuuuuuuuuuu#0yr;.uuuuuu $9yyyr2+ uuuuuuuuuuuuuuuuuu.&9yyyt1.uuuuuuu.-ty0#uuuuuuuuuuuuuuuuuuuuuuuuuuuuuuuuu",
"uuuuuuuuuuuuuuuuuuuuuuuuuuuuuuuuu &tyr-.uuuuuuu@6yyyy0:+.uuuuuuuuuuuuuuX%6ryyye-.uuuuuuu.-ryw$uuuuuuuuuuuuuuuuuuuuuuuuuuuuuuuuuu",
"uuuuuuuuuuuuuuuuuuuuuuuuuuuuuuuuu+7yyyr-.uuuuuuuo1eyyyyw3*OX uuuuu .o#;8tyyyy8% uuuuuuu.-ryw% uuuuuuuuuuuuuuuuuuuuuuuuuuuuuuuuuu",
"uuuuuuuuuuuuuuuuuuuuuuuuuuuuuuuu@8yyyyyt;.uuuuuuu.%7tyyyytw73:---;159ryyyyyw:ouuuuuuuu.;tyw% uuuuuuuuuuuuuuuuuuuuuuuuuuuuuuuuuuu",
"uuuuuuuuuuuuuuuuuuuuuuuuuuuuuuu#9yyyyyyyt:XuuuuuuuuX=7ryyyyyyytyyyyyyyyyyq2@.uuuuuuuuX:tyq% uuuuuuuuuuuuuuuuuuuuuuuuuuuuuuuuuuuu",
"uuuuuuuuuuuuuuuuuuuuuuuuuuuuu $qyyyyyyyyyt2XuuuuuuuuuX%30tyyyyyyyyyyyye7;+ uuuuuuuuuX2tyq% uuuuuuuuuuuuuuuuuuuuuuuuuuuuuuuuuuuuu",
"uuuuuuuuuuuuuuuuuuuuuuuuuuuu %wyyyyyyyyyyyy4ouuuuuuuuuu O%:470weeq962-@.uuuuuuuuuuuo5yy0$ uuuuuuuuuuuuuuuuuuuuuuuuuuuuuuuuuuuuuu",
"uuuuuuuuuuuuuuuuuuuuuuuuuuu *eyyyyyyyyyyyyyy7@uuuuuuuuuuuuu.XoOOOoo. uuuuuuuuuuuuu@7yy8@uuuuuuuuuuuuuuuuuuuuuuuuuuuuuuuuuuuuuuuu",
"uuuuuuuuuuuuuuuuuuuuuuuuuu.-ryyyyyyyyyyyy86yy9$ uuuuuuuuuuuuuuuuuuuuuuuuuuuuuuuu $0yy6Ouuuuuuuuuuuuuuuuuuuuuuuuuuuuuuuuuuuuuuuuu",
"uuuuuuuuuuuuuuuuuuuuuuuuu.;ryyyyyyyyyyyy8+X3yyw=.uuuuuuuuuuuuuuuuuuuuuuuuuuuuuu.-wyt3ouuuuuuuuuuuuuuuuuuuuuuuuuuuuuuuuuuuuuuuuuu",
"uuuuuuuuuuuuuuuuuuuuuuuu.1tyyyyyyyyyyyy6OuuX:ryt1XuuuuuuuuuuuuuuuuuuuuuuuuuuuuX1ryr:.uuuuuuuuuuuuuuuuuuuuuuuuuuuuuuuuuuuuuuuuuuu",
"uuuuuuuuuuuuuuuuuuuuuuuX2tyyyyyyyyyyyy5ouuuu.*qyy6@uuuuuuuuuuuuuuuuuuuuuuuuuu@6yyw*.uuuuuuuuuuuuuuuuuuuuuuuuuuuuuuuuuuuuuuuuuuuu",
"uuuuuuuuuuuuuuuuuuuuuuo3yyyyyyyyyyyyy3ouuuuuu #9yy0&.uuuuuuuuuuuuuuuuuuuuuu.&0yy9# uuuuuuuuuuuuuuuuuuuuuuuuuuuuuuuuuuuuuuuuuuuuu",
"uuuuuuuuuuuuuuuuuuuuuO5yyyyyyyyyyyyt1.uuuuuuuuuO4tyr1Xuuuuuuuuuuuuuuuuuuuuo1ryt4Ouuuuuuuuuuuuuuuuuuuuuuuuuuuuuuuuuuuuuuuuuuuuuuu",
"uuuuuuuuuuuuuuuuuuuu+6yyyyyyyyyyyyt:.uuuuuuuuuuuX;wyy7# uuuuuuuuuuuuuuuu #7yye;.uuuuuuuuuuuuuuuuuuuuuuuuuuuuuuuuuuuuuuuuuuuuuuuu",
"uuuuuuuuuuuuuuuuuuuX5yyyyyyyyyyyyr-.uuuuuuuuuuuuu $9yyw;XuuuuuuuuuuuuuuX-wyy9$ uuuuuuuuuuuuuuuuuuuuuuuuuuuuuuuuuuuuuuuuuuuuuuuuu",
"uuuuuuuuuuuuuuuuuuuX8yyyyyyyyyyye=.uuuuuuuuuuuuuuuuO3ryt6@ uuuuuuuuuu @5tyt3Ouuuuuuuuuuuuuuuuuuuuuuuuuuuuuuuuuuuuuuuuuuuuuuuuuuu",
"uuuuuuuuuuuuuuuuuuu 2yyyyyyyyyyw* uuuuuuuuuuuuuuuuuu.*qyyw-XuuuuuuuuX-qyy0*.uuuuuuuuuuuuuuuuuuuuuuuuuuuuuuuuuuuuuuuuuuuuuuuuuuuu",
"uuuuuuuuuuuuuuuuuuuu@wyyyyyyyyq% uuuuuuuuuuuuuuuuuuuuu+4tyt6#.uuuu.#6tyt4+uuuuuuuuuuuuuuuuuuuuuuuuuuuuuuuuuuuuuuuuuuuuuuuuuuuuuu",
"uuuuuuuuuuuuuuuuuuuu -tyyyyyy0$ uuuuuuuuuuuuuuuuuuuuuuu.=qyyw:ouuo:wyyq=.uuuuuuuuuuuuuuuuuuuuuuuuuuuuuuuuuuuuuuuuuuuuuuuuuuuuuuu",
"uuuuuuuuuuuuuuuuuuuuu.1tyyyy9#uuuuuuuuuuuuuuuuuuuuuuuuuu +3ryy9&&9yyr3@ uuuuuuuuuuuuuuuuuuuuuuuuuuuuuuuuuuuuuuuuuuuuuuuuuuuuuuuu",
"uuuuuuuuuuuuuuuuuuuuuu.;wyy8@uuuuuuuuuuuuuuuuuuuuuuuuuuuuu.&9yyttyy9&.uuuuuuuuuuuuuuuuuuuuuuuuuuuuuuuuuuuuuuuuuuuuuuuuuuuuuuuuuu",
"uuuuuuuuuuuuuuuuuuuuuuu @1:+uuuuuuuuuuuuuuuuuuuuuuuuuuuuuuuuO1eyye1Ouuuuuuuuuuuuuuuuuuuuuuuuuuuuuuuuuuuuuuuuuuuuuuuuuuuuuuuuuuuu",
"uuuuuuuuuuuuuuuuuuuuuuuuuu uuuuuuuuuuuuuuuuuuuuuuuuuuuuuuuuuu #55# uuuuuuuuuuuuuuuuuuuuuuuuuuuuuuuuuuuuuuuuuuuuuuuuuuuuuuuuuuuuu",
"uuuuuuuuuuuuuuuuuuuuuuuuuuuuuuuuuuuuuuuuuuuuuuuuuuuuuuuuuuuuuuu..uuuuuuuuuuuuuuuuuuuuuuuuuuuuuuuuuuuuuuuuuuuuuuuuuuuuuuuuuuuuuuu",
"uuuuuuuuuuuuuuuuuuuuuuuuuuuuuuuuuuuuuuuuuuuuuuuuuuuuuuuuuuuuuuuuuuuuuuuuuuuuuuuuuuuuuuuuuuuuuuuuuuuuuuuuuuuuuuuuuuuuuuuuuuuuuuuu"
};
