/* XPM */
static char *f535f27de5084afcc74a0df668fc4118[] = {
/* columns rows colors chars-per-pixel */
"64 64 199 2 ",
"   c #2A2A2A",
".  c #373737",
"X  c gray22",
"o  c #3A3A3A",
"O  c gray24",
"+  c gray25",
"@  c #414141",
"#  c gray26",
"$  c #434343",
"%  c #444444",
"&  c #464646",
"*  c gray28",
"=  c #484848",
"-  c #484949",
";  c #494949",
":  c gray29",
">  c #4B4B4B",
",  c #4C4C4C",
"<  c gray31",
"1  c #4F5050",
"2  c #505050",
"3  c #515151",
"4  c #515252",
"5  c gray32",
"6  c #535353",
"7  c gray33",
"8  c #565656",
"9  c gray34",
"0  c #585858",
"q  c gray35",
"w  c #5A5A5A",
"e  c gray36",
"r  c #5D5D5D",
"t  c gray37",
"y  c #606060",
"u  c gray38",
"i  c #626262",
"p  c gray39",
"a  c #646464",
"s  c #656565",
"d  c gray40",
"f  c #676767",
"g  c #686868",
"h  c gray42",
"j  c #6C6C6C",
"k  c #6D6D6D",
"l  c gray43",
"z  c #6F6F6F",
"x  c gray44",
"c  c #717171",
"v  c #727272",
"b  c #747474",
"n  c gray46",
"m  c gray47",
"M  c #797979",
"N  c gray48",
"B  c #7B7B7B",
"V  c #7C7C7C",
"C  c gray49",
"Z  c #7E7E7E",
"A  c gray50",
"S  c #913333",
"D  c #923333",
"F  c #933333",
"G  c #943333",
"H  c #933434",
"J  c #953434",
"K  c #963434",
"L  c #973434",
"P  c #983434",
"I  c #993434",
"U  c #9A3434",
"Y  c #9B3535",
"T  c #9C3535",
"R  c #9D3535",
"E  c #9E3535",
"W  c #9F3535",
"Q  c #A03535",
"!  c #A03636",
"~  c #A13636",
"^  c #A23636",
"/  c #A33636",
"(  c #A43636",
")  c #A53737",
"_  c #808080",
"`  c #818181",
"'  c gray51",
"]  c #838383",
"[  c #848484",
"{  c #888888",
"}  c #898989",
"|  c gray54",
" . c #8B8B8B",
".. c gray55",
"X. c #8D8D8D",
"o. c #8E8E8E",
"O. c gray56",
"+. c #909090",
"@. c gray57",
"#. c #929292",
"$. c #939393",
"%. c gray58",
"&. c #959595",
"*. c gray59",
"=. c #979797",
"-. c #989898",
";. c gray60",
":. c #9A9A9A",
">. c #9B9B9B",
",. c gray61",
"<. c #9D9D9D",
"1. c gray62",
"2. c #9F9F9F",
"3. c #A0A0A0",
"4. c gray63",
"5. c #A2A2A2",
"6. c #A4A4A4",
"7. c #A5A5A5",
"8. c gray65",
"9. c gray66",
"0. c #A9A9A9",
"q. c #AAAAAA",
"w. c gray67",
"e. c #ACACAC",
"r. c gray68",
"t. c #AEAEAE",
"y. c #AFAFAF",
"u. c gray69",
"i. c #B1B1B1",
"p. c #B2B2B2",
"a. c gray70",
"s. c #B4B4B4",
"d. c gray71",
"f. c #B6B6B6",
"g. c #B7B7B7",
"h. c gray72",
"j. c #B9B9B9",
"k. c gray73",
"l. c #BBBBBB",
"z. c #BCBCBC",
"x. c gray74",
"c. c gray",
"v. c #C0C0C0",
"b. c #C1C1C1",
"n. c gray76",
"m. c #C3C3C3",
"M. c gray77",
"N. c #C5C5C5",
"B. c #C6C6C6",
"V. c gray78",
"C. c #C8C8C8",
"Z. c gray79",
"A. c #CACACA",
"S. c #CBCBCB",
"D. c gray80",
"F. c #CECECE",
"G. c gray81",
"H. c gray82",
"J. c #D2D2D2",
"K. c LightGray",
"L. c gray83",
"P. c #D5D5D5",
"I. c gray84",
"U. c #D7D7D7",
"Y. c #D8D8D8",
"T. c gray85",
"R. c #DADADA",
"E. c gray86",
"W. c gainsboro",
"Q. c gray87",
"!. c #DFDFDF",
"~. c gray88",
"^. c #E1E1E1",
"/. c #E2E2E2",
"(. c gray89",
"). c #E4E4E4",
"_. c gray90",
"`. c #E6E6E6",
"'. c #E7E7E7",
"]. c #EAEAEA",
"[. c gray92",
"{. c #ECECEC",
"}. c gray93",
"|. c #EEEEEE",
" X c #F1F1F1",
".X c gray95",
"XX c #F3F3F3",
"oX c #F4F4F4",
"OX c gray96",
"+X c #F6F6F6",
"@X c gray97",
"#X c #F8F8F8",
"$X c #F9F9F9",
"%X c gray98",
"&X c #FBFBFB",
"*X c gray99",
"=X c #FEFEFE",
"-X c gray100",
";X c None",
/* pixels */
";X;X;X;X;X;X;X;X;X;X;X;X;X;X;X;X;X;X;X;X;X;X;X;X;X;X;X;X;X;X;X;X;X;X;X;X;X;X;X;X;X;X;X;X;X;X;X;X;X;X;X;X;X;X;X;X;X;X;X;X;X;X;X;X",
";X;X;X;X;X;X;X;X;X;X;X;X;X;X;X;X;X;X;X;X;X;X;X;X;X;X;X;X;X;X;XO.>.;X;X;X;X;X;X;X;X;X;X;X;X;X;X;X;X;X;X;X;X;X;X;X;X;X;X;X;X;X;X;X",
";X;X;X;X;X;X;X;X;X;X;X;X;X;X;X;X;X;X;X;X;X;X;X;X;X;X;X;X;X;Xd ).].l ;X;X;X;X;X;X;X;X;X;X;X;X;X;X;X;X;X;X;X;X;X;X;X;X;X;X;X;X;X;X",
";X;X;X;X;X;X;X;X;X;X;X;X;X;X;X;X;X;X;X;X;X;X;X;X;X;X;X;X;X6 J.2.>.J.6 ;X;X;X;X;X;X;X;X;X;X;X;X;X;X;X;X;X;X;X;X;X;X;X;X;X;X;X;X;X",
";X;X;X;X;X;X;X;X;X;X;X;X;X;X;X;X;X;X;X;X;X;X;X;X;X;X;X;XO.W.d.;X;Xa.W.O.;X;X;X;X;X;X;X;X;X;X;X;X;X;X;X;X;X;X;X;X;X;X;X;X;X;X;X;X",
";X;X;X;X;X;X;X;X;X;X;X;X;X;X;X;X;X;X;X;X;X;X;X;X;X7 %.J.I.O.;X;X;X;X| I.I.>.0 ;X;X;X;X;X;X;X;X;X;X;X;X;X;X;X;X;X;X;X;X;X;X;X;X;X",
";X;X;X;X;X;X;X;X;X;X;X;X;X;X;X;X;X;X;X;X;X* z >.Z./.Z.$.@ ;X;X;X;X;X;X@ O.G.W.V.>.l : ;X;X;X;X;X;X;X;X;X;X;X;X;X;X;X;X;X;X;X;X;X",
";X;X;X;X;X;X;X;X;X;X;X;X;X@ < r l ' >.a.Z.E.E.V.2.d ;X;X;X;X;XI ~ ;X;X;X;X;Xd 2.V.E.E.Z.d.>.] l r < @ ;X;X;X;X;X;X;X;X;X;X;X;X;X",
";X;X;X;X;X;X;X;X;X;Xa.I.I.E.E.E.E.G.b.a.$.l : ;X;X;X;X;X;X;XD R ( ( ~ ;X;X;X;X;X;X> v $.r.V.J.E.E.E.E.I.I.a.;X;X;X;X;X;X;X;X;X;X",
";X;X;X;X;X;X;X;X;X' E.' m l i 7 * ;X;X;X;X;X;X;X;X;X;XD D D G ~ ~ ( ( ( ~ ;X;X;X;X;X;X;X;X;X;X$ 7 i h B ' E.' ;X;X;X;X;X;X;X;X;X",
";X;X;X;X;X;X;X;X;XZ.$.;X;X;X;X;X;X;X;X;X;X;X;X;XD D S S D D I ~ ~ ( ~ ( ( ( ~ ( ;X;X;X;X;X;X;X;X;X;X;X;X;X$.Z.;X;X;X;X;X;X;X;X;X",
";X;X;X;X;X;X;X;Xl I.* ;X;X;X;X;X;X;X;XD D D D D D D S S S D ~ ( ( ( ~ ( ~ ( ( ( ( ~ ( ~ ( ;X;X;X;X;X;X;X;X* I.l ;X;X;X;X;X;X;X;X",
";X;X;X;X;X;X;X;Xr.r.;X;X;XD D S S S S S S S S S S S S S D K ~ ~ ( ~ ( ( ~ ( ( ~ ( ~ ( ( ~ ( ( ~ ~ ~ ( ( ;X;Xr.r.;X;X;X;X;X;X;X;X",
";X;X;X;X;X;X;X;XJ.v ;X;XD D S S S S S S S S S S S S S S H I ~ ( ( ( ~ ( ~ ( ( ~ ( ( ~ ( ~ ( ( ~ ( ( ~ ( ;X;Xv J.;X;X;X;X;X;X;X;X",
";X;X;X;X;X;X;Xv J.;X;X;XS S S S S S S S S S S S S S S S D ~ ~ ( ~ ~ ( ( ( ( ( ( ~ ~ ( ( ( ( ( ( ( ~ ( ( ;X;X;XJ.v ;X;X;X;X;X;X;X",
";X;X;X;X;X;X;X2.d.;X;XD S S S S S S S S S S S S S S S S I ( ( ( ( ( ( ~ ( ~ ~ ( ( ( ( ~ ( ~ ~ ( ( ( ( ~ ~ ;X;Xd.3.;X;X;X;X;X;X;X",
";X;X;X;X;X;X;Xb.O.;X;XD D D S S S S S S S S S S S S S D R ~ ( ~ ( ( ( ~ ( ~ ~ ( ( ~ ~ ( ~ ( ( ( ~ ~ ( ( ( ;X;XO.b.;X;X;X;X;X;X;X",
";X;X;X;X;X;X;XJ.d ;X;XD S S S S S S S S S S S S S S S H ~ ~ ( ~ ~ ~ ( ( ( ( ( ( ( ( ( ( ( ( ~ ~ ( ( ( ~ ( ;X;Xd J.@ ;X;X;X;X;X;X",
";X;X;X;X;X;Xi J.* ;X;XS S S S S S S S S S S S S D D D I ( ( ( ( ( ( ~ ( ~ ( ( ~ ~ ( ( ~ ( ~ ( ( ( ( ( ~ ~ ;X;X$ J.i ;X;X;X;X;X;X",
";X;X;X;X;X;XZ Z.;X;X;XD S S S S S S S S S S S S D D D ~ ( ~ ~ ( ( ~ ( ( ~ ( ( ~ ~ ( ( ~ ( ( ~ ( ~ ~ ( ( ( ( ;X;XV.Z ;X;X;X;X;X;X",
";X;X;X;X;X;X%.j.;X;XD D S S S S S S S S S S S S D S K ~ ( ~ ~ ( ( ( ~ ( ~ ( ( ( ( ( ( ~ ( ~ ( ( ( ( ~ ( ( ~ ;X;Xj.%.;X;X;X;X;X;X",
";X;X;X;X;X;X7.0.;X;XD D S S S S S S S S S S S S D D I ~ ( ( ( ( ~ ( ~ ( ( ( ~ ( ( ~ ( ( ( ~ ( ~ ( ~ ( ( ( ( ;X;X0.7.;X;X;X;X;X;X",
";X;X;X;X;X;Xa.>.;X;XD S S S S S S S S S S S S S D G ~ ( ~ ( ( ~ ( ~ ( ( ( ~ ( ~ ~ ( ~ ( ( ( ~ ( ( ( ~ ~ ~ ~ ;X;X2.a.;X;X;X;X;X;X",
";X;X;X;X;X;Xj.$.;X;XD S S S S S S S S S S S S S D I ~ ( ~ ( ( ~ ( ( ( ~ ( ~ ( ( ( ( ~ ( ~ ( ( ( ~ ( ( ( ( ( ;X;X$.j.;X;X;X;X;X;X",
";X;X;X;X;X;Xz.$.;X;XD D S S S S S S S S S S S S D R ~ ( ~ ( ( ( ~ ( ( ~ ( ( ( ~ ~ ( ( ( ~ ( ( ~ ~ ( ( ( ( ( ;X;XO.z.;X;X;X;X;X;X",
";X;X;X;X;X;Xz.O.;X;XS D S S S S S S S S S S S S H ~ ~ ( ( ( ~ ( ~ ( ( ~ ( ~ ( ( ( ( ~ ( ~ ( ( ~ ( ( ~ ~ ~ ~ ;X;XO.z.;X;X;X;X;X;X",
";X;X;X;X;X;Xj.$.;X;XS S S S S S S S S S S S D D R ~ ( ( ( ~ ( ~ ( ( ( ( ~ ( ~ ( ( ~ ( ~ ( ( ( ( ( ~ ( ( ( ( ;X;X$.d.;X;X;X;X;X;X",
";X;X;X;X;X;Xa.2.;X;XD S S S S S S S S S S S D D ~ ( ( ~ ( ~ ( ( ( ~ ~ ( ( ( ~ ( ( ~ ( ( ( ~ ~ ( ( ( ~ ( ( ~ ;X;X2.a.;X;X;X;X;X;X",
";X;X;X;X;X;X7.0.;X;XD S S S S S S S S S S S D K ~ ( ( ( ;X;X;X;X;X;X;X( ( ~ ( ( ( ~ ( ( ( ( ( ~ ~ ~ ( ( ( ( ;X;X0.7.;X;X;X;X;X;X",
";X;X;X;X;X;X%.j.;X;XD D S S S S S S S S S S D R ~ ;X;X;X;X;X;X;X;X;X;X;X;X;X( ~ ( ~ ( ~ ~ ~ ( ( ( ( ( ~ ~ ( ;X;Xz.$.;X;X;X;X;X;X",
";X;X;X;X;X;XB Z.;X;XD D S S S S S S S S S S D ;X;X;X;Xi >.b.U././.J.j.O.6 ;X;X;X( ( ( ~ ( ( ~ ( ( ( ( ~ ~ ( ;X;XZ.Z ;X;X;X;X;X;X",
";X;X;X;X;X;Xr I.: ;X;XD S S S S S S S S S D ;X;X;Xf z.XXXXE.b.d.d.V./.+X].0.6 ;X;X~ ( ( ( ~ ( ( ~ ~ ( ( ( ~ ;X: I.r ;X;X;X;X;X;X",
";X;X;X;X;X;X;XJ.l ;X;XD S S S S S S D D H ;X;X;X2. X].0.d ;X;X;X;X;X@ m j.+X/.' ;X;X~ ~ ( ( ( ~ ( ( ( ~ ( ;X;Xl J.;X;X;X;X;X;X;X",
";X;X;X;X;X;X;Xz.%.;X;XD S S S S S S S D ;X;X;Xd.*Xz.7 ;X;X;X;X;X;X;X;X;X;Xl I.+X$.;X;X( ( ~ ( ~ ( ~ ( ( ~ ;X;X=.z.;X;X;X;X;X;X;X",
";X;X;X;X;X;X;X%.b.;X;XD S S S S S S D D ;X;Xr.#X7.;X;X;X;X;X;X;X;X;X;X;X;X;X* b.+X| ;X;X( ( ( ( ~ ( ~ ( ( ;X;Xz.%.;X;X;X;X;X;X;X",
";X;X;X;X;X;X;Xd I.: ;X;XS S S S S S D ;X;X| #Xr.;X;X;X;X;X;X;X;X;X;X;X;X;X;X;XO G.{.i ;X;X~ ~ ( ( ( ~ ( ( ;X: I.d ;X;X;X;X;X;X;X",
";X;X;X;X;X;X;X;XD.[ ;X;XD S S S S S H ;X* /.J.o ;X;X;X;X;X;X;X;X;X;X;X;X;X;X;X;X7 |.b.;X;X~ ( ~ ( ~ ( ~ ;X;X] D.;X;X;X;X;X;X;X;X",
";X;X;X;X;X;X;X;X2.j.;X;XD D S S S S ;X;X>.#Xm ;X;X;X;X;X;X;X;X;X;X;X;X;X;X6 ' 0 ;X7.+Xl ;X;X( ( ( ( ( ~ ;X;Xz.2.;X;X;X;X;X;X;X;X",
";X;X;X;X;X;X;X;Xr E.0 ;X;XD S D D H ;X;XJ.J.;X;X;X;X;X;X;X;X;X;X;X;X;X;X| %.7 ;X;X0 |.e.;X;X;X( ~ ~ ( ( ;X0 E.r ;X;X;X;X;X;X;X;X",
";X;X;X;X;X;X;X;X;Xz.3.;X;XD S D D ;X;Xr  X3.;X;X;X;X;X;X;X;X;X;X;X;X< r.O.;X;X;X;X;XV.E.;X;X;X~ ( ( ( ;X;X3.z.;X;X;X;X;X;X;X;X;X",
";X;X;X;X;X;X;X;X;Xm I.* ;X;XD D ;X;X;XZ +XB ;X;X;X;X;X;X;X;X;X;X;Xi V.' ;X;X;X;X;X;X7.|.6 ;X;X;X( ( ( ;X* E.m ;X;X;X;X;X;X;X;X;X",
";X;X;X;X;X;X;X;X;X;Xb.2.;X;XD H ;X;X;XO.+Xi ;X;X;X;X;X;X;X;X;X;Xh J.| ;X;X;X;X;X;X;X$.+Xd ;X;X;X;X~ ;X;X2.b.;X;X;X;X;X;X;X;X;X;X",
";X;X;X;X;X;X;X;X;X;Xv E.6 ;X;X;X;X;X;X$.+Xr ;X;X;X;X;X;X;X;X;X0 E.2.;X;X;X;X;X;X;X;X| +Xd ;X;X;X;X;X;X6 I.m ;X;X;X;X;X;X;X;X;X;X",
";X;X;X;X;X;X;X;X;X;X;Xj.r.;X;X;X;X;X;X| +Xl ;X;X;X$.j.O ;X;X* G.z.;X;X;X;X;X;X;X;X;X%. Xr ;X;X;X;X;X;Xr.j.;X;X;X;X;X;X;X;X;X;X;X",
";X;X;X;X;X;X;X;X;X;X;Xr E.m ;X;X;X;X;Xl +X| ;X;X6 /.*Xd.;X;Xd.).7 ;X;X;X;X;X;X;X;X;Xa.).* ;X;X;X;X;Xm E.r ;X;X;X;X;X;X;X;X;X;X;X",
";X;X;X;X;X;X;X;X;X;X;X;X%.J.@ ;X;X;X;X: ).j.;X;X;XZ  X*X3.| +XO.;X;X;X;X;X;X;X;X;X;XE.V.;X;X;X;X;X@ J.%.;X;X;X;X;X;X;X;X;X;X;X;X",
";X;X;X;X;X;X;X;X;X;X;X;X;XV.r.;X;X;X;X;Xj.].6 ;X;X;X$.#X#X#XG.;X;X;X;X;X;X;X;X;X;XB #X$.;X;X;X;X;Xy.M.;X;X;X;X;X;X;X;X;X;X;X;X;X",
";X;X;X;X;X;X;X;X;X;X;X;X;X0 E.| ;X;X;X;Xv +X7.;X;X;X;X3.*X*XZ ;X;X;X;X;X;X;X;X;X;XG./.: ;X;X;X;X| E.0 ;X;X;X;X;X;X;X;X;X;X;X;X;X",
";X;X;X;X;X;X;X;X;X;X;X;X;X;XZ W.h ;X;X;X;Xj. Xl ;X;X;X;Xd.Z.;X;X;X;X;X;X;X;X;X;X%.*X$.;X;X;X;Xh !.Z ;X;X;X;X;X;X;X;X;X;X;X;X;X;X",
";X;X;X;X;X;X;X;X;X;X;X;X;X;X;X>.E.7 ;X;X;X7 /./.r ;X;X;XO 0 ;X;X;X;X;X;X;X;X;X' +Xb.;X;X;X;X7 E.>.;X;X;X;X;X;X;X;X;X;X;X;X;X;X;X",
";X;X;X;X;X;X;X;X;X;X;X;X;X;X;X;Xr.G.: ;X;X;Xl ].W.v ;X;X;X;X;X;X;X;X;X;X;X;XO. XJ.< ;X;X;X: J.r.;X;X;X;X;X;X;X;X;X;X;X;X;X;X;X;X",
";X;X;X;X;X;X;X;X;X;X;X;X;X;X;X;X  V.G.* ;X;X;Xl /.+X0.7 ;X;X;X;X;X;X;X;Xh z.#XZ.< ;X;X;X* G.j.;X;X;X;X;X;X;X;X;X;X;X;X;X;X;X;X;X",
";X;X;X;X;X;X;X;X;X;X;X;X;X;X;X;Xh W.*XG.: ;X;X;X6 d.+X].j.| l r i v %.V. X|.2.;X;X;X;X: Z.z.o ;X;X;X;X;X;X;X;X;X;X;X;X;X;X;X;X;X",
";X;X;X;X;X;X;X;X;X;X;X;X;X;X;Xv ].*X*X*XG.7 ;X;X;X;Xl d./.+X+X X X+X XE.7.0 ;X;X;X;X6 J.j.o ;X;X;X;X;X;X;X;X;X;X;X;X;X;X;X;X;X;X",
";X;X;X;X;X;X;X;X;X;X;X;X;X;XZ ].*X*X*X*X*XE.d ;X;X;X;X;X* l [ %.$.' d ;X;X;X;X;X;Xh I.a.;X;X;X;X;X;X;X;X;X;X;X;X;X;X;X;X;X;X;X;X",
";X;X;X;X;X;X;X;X;X;X;X;X;X|  X*X*X*X*X*X0.3.W.Z ;X;X;X;X;X;X;X;X;X;X;X;X;X;X;X;XZ W.3.;X;X;X;X;X;X;X;X;X;X;X;X;X;X;X;X;X;X;X;X;X",
";X;X;X;X;X;X;X;X;X;X;X;X%.+X*X*X*X*X*X7.;X;X| /.2.;X;X;X;X;X;X;X;X;X;X;X;X;X;X2.W.| ;X;X;X;X;X;X;X;X;X;X;X;X;X;X;X;X;X;X;X;X;X;X",
";X;X;X;X;X;X;X;X;X;X;X3.#X*X*X*X*X+X%.;X;X;X;Xl I.z.6 ;X;X;X;X;X;X;X;X;X;X6 z.I.l ;X;X;X;X;X;X;X;X;X;X;X;X;X;X;X;X;X;X;X;X;X;X;X",
";X;X;X;X;X;X;X;X;X;X3.*X*X*X*X*X XO.;X;X;X;X;X;X: j.E.Z ;X;X;X;X;X;X;X;XZ E.j.: ;X;X;X;X;X;X;X;X;X;X;X;X;X;X;X;X;X;X;X;X;X;X;X;X",
";X;X;X;X;X;X;X;X;X;XZ.*X*X*X*X X' ;X;X;X;X;X;X;X;X;X$.W.a.: ;X;X;X;X: r.W.$.;X;X;X;X;X;X;X;X;X;X;X;X;X;X;X;X;X;X;X;X;X;X;X;X;X;X",
";X;X;X;X;X;X;X;X;X;XZ  X*X*X].m ;X;X;X;X;X;X;X;X;X;X;Xr V.I.' ;X;X[ I.V.r ;X;X;X;X;X;X;X;X;X;X;X;X;X;X;X;X;X;X;X;X;X;X;X;X;X;X;X",
";X;X;X;X;X;X;X;X;X;X;XO.|./.l ;X;X;X;X;X;X;X;X;X;X;X;X;X;XO.W.b.b.W.O.;X;X;X;X;X;X;X;X;X;X;X;X;X;X;X;X;X;X;X;X;X;X;X;X;X;X;X;X;X",
";X;X;X;X;X;X;X;X;X;X;X;X7 6 ;X;X;X;X;X;X;X;X;X;X;X;X;X;X;X;X6 a.a.6 ;X;X;X;X;X;X;X;X;X;X;X;X;X;X;X;X;X;X;X;X;X;X;X;X;X;X;X;X;X;X",
";X;X;X;X;X;X;X;X;X;X;X;X;X;X;X;X;X;X;X;X;X;X;X;X;X;X;X;X;X;X;X;X;X;X;X;X;X;X;X;X;X;X;X;X;X;X;X;X;X;X;X;X;X;X;X;X;X;X;X;X;X;X;X;X"
};
