/* XPM */
static char *_2b24914205049eefff9e24362aebf07[] = {
/* columns rows colors chars-per-pixel */
"32 32 123 2 ",
"   c #484848",
".  c gray48",
"X  c #7C7C7C",
"o  c #8E2E2E",
"O  c #8F2E2E",
"+  c #972F2F",
"@  c #903030",
"#  c #923131",
"$  c #913232",
"%  c #913333",
"&  c #923232",
"*  c #923333",
"=  c #933333",
"-  c #943434",
";  c #963434",
":  c #9E3232",
">  c #9F3232",
",  c #983434",
"<  c #9A3434",
"1  c #9A3535",
"2  c #9B3535",
"3  c #9D3535",
"4  c #9E3535",
"5  c #9F3535",
"6  c #A03131",
"7  c #A13131",
"8  c #A13232",
"9  c #A23434",
"0  c #A33434",
"q  c #A33535",
"w  c #A03636",
"e  c #A23636",
"r  c #A33636",
"t  c #A43434",
"y  c #A43535",
"u  c #A43636",
"i  c #A53636",
"p  c #856E6E",
"a  c #898787",
"s  c gray54",
"d  c #8B8B8B",
"f  c #8D8D8D",
"g  c gray56",
"h  c gray57",
"j  c #929292",
"k  c #939393",
"l  c gray58",
"z  c #959595",
"x  c gray59",
"c  c #979797",
"v  c #959898",
"b  c #969898",
"n  c #979A9A",
"m  c #989898",
"M  c gray60",
"N  c #989A9A",
"B  c #989B9B",
"V  c #9A9A9A",
"C  c #9B9B9B",
"Z  c #999C9C",
"A  c #9A9C9C",
"S  c gray61",
"D  c #9D9D9D",
"F  c gray62",
"G  c #9E9F9F",
"H  c #9F9F9F",
"J  c #9FA0A0",
"K  c #9FA1A1",
"L  c gray63",
"P  c #A1A2A2",
"I  c #A2A2A2",
"U  c #A2A3A3",
"Y  c gray64",
"T  c #A2A4A4",
"R  c #A3A4A4",
"E  c #A4A4A4",
"W  c #A5A5A5",
"Q  c gray65",
"!  c #A6A7A7",
"~  c gray66",
"^  c #A8A9A9",
"/  c #A9A9A9",
"(  c #AAAAAA",
")  c gray67",
"_  c #ACACAC",
"`  c gray68",
"'  c #ADB0B0",
"]  c #AFB0B0",
"[  c #B0B2B2",
"{  c #B4B4B4",
"}  c #B6B6B6",
"|  c #B7B7B7",
" . c #B7B9B9",
".. c #B9B9B9",
"X. c gray73",
"o. c #BBBBBB",
"O. c #BCBCBC",
"+. c gray74",
"@. c #BDBEBE",
"#. c #BDBFBF",
"$. c gray",
"%. c #BEBFBF",
"&. c gray75",
"*. c #BFC0C0",
"=. c #C0C0C0",
"-. c #C1C1C1",
";. c #C0C2C2",
":. c gray76",
">. c #C2C3C3",
",. c #C3C3C3",
"<. c gray82",
"1. c #D2D2D2",
"2. c gray84",
"3. c gray85",
"4. c gainsboro",
"5. c gray89",
"6. c gray91",
"7. c gray92",
"8. c #F4F4F4",
"9. c gray97",
"0. c gray98",
"q. c gray100",
"w. c None",
/* pixels */
"w.w.w.w.w.w.w.w.w.w.w.w.w.w.w.w.w.w.w.w.w.w.w.w.w.w.w.w.w.w.w.w.",
"w.w.w.w.w.w.w.w.w.w.w.w.w.w.w.` ` w.w.w.w.w.w.w.w.w.w.w.w.w.w.w.",
"w.w.w.w.w.w.w.w.w.w.w.w.w.N ) w.w.) N w.w.w.w.w.w.w.w.w.w.w.w.w.",
"w.w.w.w.w.w.w.w.w.z D Q Q b w.w.w.w.b Q Q D z w.w.w.w.w.w.w.w.w.",
"w.w.w.w.w.) R R J Z w.w.w.w.= , e u w.w.w.w.N L L R _ w.w.w.w.w.",
"w.w.w.w.D w.w.w.w.w.w.= * * * 5 u e e u u w.w.w.w.w.w.D w.w.w.w.",
"w.w.w.w.L w.= = % % % % * * , e e u e u u e u e u u w.R w.w.w.w.",
"w.w.w.w.N w.% = % % % % % * , u u e u e e u e u e u w.b w.w.w.w.",
"w.w.w.N w.w.= % % % % % = = 5 e e u e u e u e u u e 8 w.N w.w.w.",
"w.w.w.D w.= = % % % % % = - e e u e u e u e u e e u u w.D w.w.w.",
"w.w.w.H w.= % % % % % % = 5 u e e u e u e u e u u e u w.L w.w.w.",
"w.w.w.L w.= % % % % % % - e e u u e u e u e u e e u u w.L w.w.w.",
"w.w.w.J w.= % % % % % % , e e e e u e u e u e u u e u w.D w.w.w.",
"w.w.w.J w.= % % % % = = 5 u u u u u u e u e u e e u u w.L w.w.w.",
"w.w.w.L w.= = % % % % - e w.w.w.w.w.+ e e u u e u e u w.J w.w.w.",
"w.w.w.D w.= % % % % = w.w.` *.#.#.#.) w.> u e u e u u w.D w.w.w.",
"w.w.w.N w.o % % = = w.w.;.) w.w.w.w.] ;.p > e e u e 8 w.N w.w.w.",
"w.w.w.w.Z w.% % % = w.,.w.w.w.w.w.w.w.k ;.w.e u e u w.Z w.w.w.w.",
"w.w.w.w.L w.= = = w.X.D w.w.w.w.w.w.w.  D [ w.u u u w.Y w.w.w.w.",
"w.w.w.w.D w.o = = w.;.w.w.w.w.w.w.X . w.w.;.w.w.e 8 w.N w.w.w.w.",
"w.w.w.w.w.L w.- w.w.} w.w.w.w.w.k f w.w.w.#.w.w.u w.L w.w.w.w.w.",
"w.w.w.w.w.D a w.w.w.} w.w.w.w.z Q w.w.w.w.X.w.w.w.a D w.w.w.w.w.",
"w.w.w.w.w.w.Q w.w.w.#.w.N 3.z o.w.w.w.w.w.&.w.w.w.Q w.w.w.w.w.w.",
"w.w.w.w.w.w.f D w.w.#.w.w.} 6.C w.w.w.w.D } w.w.H f w.w.w.w.w.w.",
"w.w.w.w.w.w.w.D z w.k ;.w.w.z w.w.w.w.w.;.w.w.z D w.w.w.w.w.w.w.",
"w.w.w.w.w.w.w.w.Q z w.L ;.w.w.w.w.w.c ;.c w.k Y w.w.w.w.w.w.w.w.",
"w.w.w.w.w.w.w.w.1.7.C w.w.o.#.| | &.X.w.w.k Y w.w.w.w.w.w.w.w.w.",
"w.w.w.w.w.w.w.2.q.0.;.c w.w.w.w.w.w.w.w.N L w.w.w.w.w.w.w.w.w.w.",
"w.w.w.w.w.w.4.q.9.} w.N L w.w.w.w.w.w.Y N w.w.w.w.w.w.w.w.w.w.w.",
"w.w.w.w.w.1.q.8.` w.w.w.d ) w.w.w.w.) d w.w.w.w.w.w.w.w.w.w.w.w.",
"w.w.w.w.w.` 5.Q w.w.w.w.w.w.R L L L w.w.w.w.w.w.w.w.w.w.w.w.w.w.",
"w.w.w.w.w.w.w.w.w.w.w.w.w.w.w.d a w.w.w.w.w.w.w.w.w.w.w.w.w.w.w."
};
