/* XPM */
static char *da1a25da2c4b4ca28f5d0e7b9278aa86[] = {
/* columns rows colors chars-per-pixel */
"16 16 70 1 ",
"  c #8F2F2F",
". c #8F3232",
"X c #8E3E3E",
"o c #913131",
"O c #903232",
"+ c #913232",
"@ c #913333",
"# c #923333",
"$ c #973333",
"% c #923434",
"& c #943434",
"* c #9E3333",
"= c #993434",
"- c #9D3535",
"; c #A23232",
": c #A13434",
"> c #A13535",
", c #A23434",
"< c #A33434",
"1 c #A23535",
"2 c #A33535",
"3 c #A13636",
"4 c #A33636",
"5 c #8E4444",
"6 c #8E4747",
"7 c #8E4C4C",
"8 c #9E4141",
"9 c #9D4545",
"0 c #924C4C",
"q c #9C4848",
"w c #9F4B4B",
"e c #9B4C4C",
"r c #8E5757",
"t c #995656",
"y c #905B5B",
"u c #9A5D5D",
"i c #A15E5E",
"p c #8F6363",
"a c #986161",
"s c #927070",
"d c #947676",
"f c #987171",
"g c #947A7A",
"h c #927F7F",
"j c #967F7F",
"k c #A06565",
"l c #A17373",
"z c #918383",
"x c #948181",
"c c #9E8282",
"v c #949393",
"b c gray58",
"n c #A58888",
"m c #A58A8A",
"M c #A0A0A0",
"N c gray63",
"B c #A1A2A2",
"V c gray64",
"C c #A3A6A6",
"Z c #A7A7A7",
"A c gray66",
"S c #A9A9A9",
"D c #A9ABAB",
"F c #ACACAC",
"G c #B6B6B6",
"H c gray",
"J c gray82",
"K c #E2E2E2",
"L c #EAEAEA",
"P c None",
/* pixels */
"PPPPPPPPPPPPPPPP",
"PPPPPPPPgPPPPPPP",
"PPvhsyX&28ufjvPP",
"PPP +++-2222;dPP",
"PPr@@@&444442tPP",
"PP5+@@=244442qPP",
"PP5+@@-24;4429PP",
"PP7+@@kmmi422ePP",
"PPp++cPPPCl4;aPP",
"PPx.0SPPPPCq4xPP",
"PPPPPPPPPPPPPPPP",
"PPPPPCFGPPSPPPPP",
"PPPPPNNPPPPPPPPP",
"PPPPKZPZSPPPPPPP",
"PPPLJPPPPPPPPPPP",
"PPPHPPPbbPPPPPPP"
};
